<svg width="32" height="32" viewBox="0 0 32 32" fill="none" xmlns="http://www.w3.org/2000/svg">
<path fill-rule="evenodd" clip-rule="evenodd" d="M26.454 24.2577C26.454 28.6524 20.4273 29.1604 15.8953 29.1604L15.571 29.1601C12.6836 29.1531 5.33398 28.9708 5.33398 24.231C5.33398 19.9261 11.1185 19.3507 15.616 19.329L16.2196 19.3287C19.1068 19.3357 26.454 19.518 26.454 24.2577ZM15.8953 21.3284C10.214 21.3284 7.33398 22.3044 7.33398 24.231C7.33398 26.175 10.214 27.1604 15.8953 27.1604C21.5753 27.1604 24.454 26.1844 24.454 24.2577C24.454 22.3137 21.5753 21.3284 15.8953 21.3284ZM15.8953 2.6665C19.7993 2.6665 22.974 5.8425 22.974 9.7465C22.974 13.6505 19.7993 16.8252 15.8953 16.8252H15.8527C11.9567 16.8132 8.80065 13.6358 8.81394 9.7425C8.81394 5.8425 11.99 2.6665 15.8953 2.6665ZM15.8953 4.5705C13.0407 4.5705 10.718 6.89184 10.718 9.7465C10.7087 12.5918 13.014 14.9118 15.8567 14.9225L15.8953 15.8745V14.9225C18.7487 14.9225 21.07 12.5998 21.07 9.7465C21.07 6.89184 18.7487 4.5705 15.8953 4.5705Z" fill="#242424"/>
</svg>
