<svg width="24" height="24" viewBox="0 0 24 24" fill="none" xmlns="http://www.w3.org/2000/svg">
<rect width="24" height="24" fill="white"/>
<path d="M15.838 6.11402C16.0194 6.18929 16.1843 6.29961 16.323 6.43867C16.908 7.02367 16.908 7.98367 16.338 8.55367L13.503 11.3887L16.338 14.2237C16.4769 14.3625 16.5871 14.5274 16.6622 14.7089C16.7374 14.8903 16.7761 15.0848 16.7761 15.2812C16.7761 15.4776 16.7374 15.672 16.6622 15.8535C16.5871 16.0349 16.4769 16.1998 16.338 16.3387C16.1992 16.4775 16.0343 16.5877 15.8528 16.6629C15.6714 16.738 15.4769 16.7767 15.2805 16.7767C15.0841 16.7767 14.8897 16.738 14.7082 16.6629C14.5268 16.5877 14.3619 16.4775 14.223 16.3387L11.388 13.5037L8.55303 16.3387C8.41416 16.4775 8.24929 16.5877 8.06785 16.6629C7.8864 16.738 7.69193 16.7767 7.49553 16.7767C7.29914 16.7767 7.10466 16.738 6.92322 16.6629C6.74177 16.5877 6.5769 16.4775 6.43803 16.3387C6.29916 16.1998 6.189 16.0349 6.11384 15.8535C6.03868 15.672 6 15.4776 6 15.2812C6 15.0848 6.03868 14.8903 6.11384 14.7089C6.189 14.5274 6.29916 14.3625 6.43803 14.2237L9.27303 11.3887L6.43803 8.55367C6.29916 8.41479 6.189 8.24993 6.11384 8.06848C6.03868 7.88703 6 7.69256 6 7.49617C6 7.29977 6.03868 7.1053 6.11384 6.92385C6.189 6.74241 6.29916 6.57754 6.43803 6.43867C6.5769 6.29979 6.74177 6.18963 6.92322 6.11448C7.10466 6.03932 7.29914 6.00064 7.49553 6.00064C7.69193 6.00064 7.8864 6.03932 8.06785 6.11448C8.24929 6.18963 8.41416 6.29979 8.55303 6.43867L11.388 9.27367L14.208 6.43867C14.3468 6.29961 14.5116 6.18929 14.6931 6.11402C14.8746 6.03875 15.0691 6 15.2655 6C15.462 6 15.6565 6.03875 15.838 6.11402Z" fill="black"/>
</svg>
